<svg width="728" height="192" viewBox="0 0 728 192" fill="none" xmlns="http://www.w3.org/2000/svg">
<path d="M69.1177 18.6408C41.018 18.6408 18.2387 41.4201 18.2387 69.5198C18.2387 88.9159 29.4306 105.777 45.4066 114.361C45.8971 114.625 46.2093 115.134 46.2093 115.69V136.827C46.2093 141.576 42.3589 145.427 37.6092 145.427C32.8595 145.427 29.0091 141.576 29.0091 136.827V125.427C11.6333 112.939 0.316895 92.5509 0.316895 69.5198C0.316895 31.5222 31.1201 0.718994 69.1177 0.718994C107.115 0.718994 137.919 31.5222 137.919 69.5198C137.919 92.5954 126.558 113.018 109.126 125.499V136.827C109.126 141.576 105.275 145.427 100.525 145.427C95.7758 145.427 91.9254 141.576 91.9254 136.827V116.136C91.9254 115.306 92.3916 114.548 93.1199 114.149C108.892 105.501 119.997 88.7571 119.997 69.5198C119.997 41.4201 97.2175 18.6408 69.1177 18.6408Z" fill="white"/>
<path d="M77.1445 145.414C79.0444 145.414 80.5845 143.874 80.5845 141.974V130.403C80.5845 128.503 79.0444 126.963 77.1445 126.963H61.091C59.1911 126.963 57.6509 128.503 57.6509 130.403V141.974C57.6509 143.874 59.1911 145.414 61.091 145.414H77.1445Z" fill="white"/>
<path d="M31.8506 168.347C27.1009 168.347 23.2505 164.497 23.2505 159.747C23.2505 154.998 27.1009 151.147 31.8506 151.147H106.385C111.135 151.147 114.985 154.998 114.985 159.747C114.985 164.497 111.135 168.347 106.385 168.347H31.8506Z" fill="white"/>
<path d="M94.918 191.281C99.6678 191.281 103.518 187.431 103.518 182.681C103.518 177.931 99.6677 174.081 94.918 174.081H43.3174C38.5677 174.081 34.7173 177.931 34.7173 182.681C34.7173 187.431 38.5677 191.281 43.3174 191.281H94.918Z" fill="white"/>
<path d="M88.5654 32.1763C89.9608 32.1763 90.7755 33.7504 89.9697 34.8896L67.8998 66.0901H98.7171C100.512 66.0901 101.684 67.9727 100.892 69.5832L83.6647 104.614C81.5786 108.855 80.4938 113.52 80.4938 118.247C80.4938 119.894 79.1584 121.229 77.5112 121.229H60.338C58.8038 121.229 57.5602 119.986 57.5602 118.452C57.5602 113.603 58.7852 108.834 61.1215 104.586L73.3653 82.3238H40.0506C37.7474 82.3238 36.3846 79.7451 37.682 77.8422L67.1112 34.6799C68.1792 33.1135 69.9525 32.1763 71.8483 32.1763H88.5654Z" fill="white"/>
<path d="M702.271 159.256V75.2172C702.271 68.8643 707.898 65.4156 714.07 65.4156C720.059 65.4156 725.686 68.8643 725.686 75.2172V159.256C725.686 165.791 719.878 169.058 713.888 169.058C707.717 169.058 702.271 165.791 702.271 159.256ZM700.275 36.7371C700.275 29.1137 706.083 23.1238 713.888 23.1238C721.512 23.1238 727.683 29.1137 727.683 36.7371C727.683 44.179 721.512 49.9873 713.888 49.9873C706.083 49.9873 700.275 44.179 700.275 36.7371Z" fill="white"/>
<path d="M644.985 111.701L680.743 149.636C691.27 160.89 673.664 177.589 663.318 165.246L629.375 126.04L616.851 137.657V159.256C616.851 165.791 611.043 169.058 605.053 169.058C598.882 169.058 593.436 165.791 593.436 159.256V31.8363C593.436 25.4834 599.063 22.2163 605.234 22.2163C611.224 22.2163 616.851 25.4834 616.851 31.8363V109.159L658.598 68.6828C670.759 57.0661 685.28 74.1281 675.297 83.5666L644.985 111.701Z" fill="white"/>
<path d="M538.12 169.602C510.893 169.602 488.386 150.907 488.386 116.601C488.386 81.933 514.342 64.8711 537.938 64.8711C550.644 64.8711 560.264 67.9567 567.161 72.1315C578.234 79.5734 568.795 97.3613 557.178 90.2824C552.822 87.5598 547.195 85.5632 539.935 85.5632C524.87 85.5632 512.709 95.7277 512.709 116.42C512.709 138.564 524.507 148.91 539.935 148.91C549.918 148.91 557.178 145.28 561.535 142.376C570.792 136.023 582.408 149.999 572.244 159.256C564.983 165.609 551.552 169.602 538.12 169.602Z" fill="white"/>
<path d="M425.022 149.636C437.728 149.636 450.07 140.924 450.07 116.964C450.07 93.7311 438.091 84.8372 425.022 84.8372C411.953 84.8372 399.792 93.7311 399.792 116.964C399.792 140.924 412.135 149.636 425.022 149.636ZM425.022 169.784C397.614 169.784 375.651 150.907 375.651 116.964C375.651 83.0221 398.885 64.5081 425.022 64.5081C451.341 64.5081 474.211 83.0221 474.211 116.964C474.211 150.907 452.612 169.784 425.022 169.784Z" fill="white"/>
<path d="M267.109 159.256V31.8363C267.109 25.4834 272.735 22.2163 278.907 22.2163C284.897 22.2163 290.523 25.4834 290.523 31.8363V79.7549C298.147 70.1349 309.763 65.4156 321.199 65.4156C340.257 65.4156 356.775 77.0322 356.775 100.084V159.256C356.775 165.791 350.966 169.058 344.976 169.058C338.987 169.058 333.36 165.791 333.36 159.256V104.44C333.36 93.5496 326.099 86.2892 313.212 86.2892C303.229 86.2892 295.061 91.553 290.523 104.259V159.256C290.523 165.791 284.897 169.058 278.907 169.058C272.735 169.058 267.109 165.791 267.109 159.256Z" fill="white"/>
<path d="M211.022 64.8711C225.543 64.8711 235.344 68.1382 241.334 71.4054C252.588 77.3952 244.42 94.0942 232.803 88.2858C228.629 85.9262 219.372 83.3851 212.837 83.3851C201.947 83.3851 195.775 87.3783 195.775 94.2757C195.775 101.173 201.765 104.622 211.204 106.437L220.461 108.252C237.341 111.701 248.413 121.502 248.413 137.112C248.413 155.808 231.351 169.602 207.573 169.602C194.142 169.602 183.251 167.061 175.083 161.616C164.011 154.718 172.36 136.386 184.885 143.102C190.148 146.55 200.495 149.818 207.21 149.818C218.282 149.818 225.18 145.28 225.18 138.201C225.18 131.304 218.827 127.855 209.57 125.858L199.95 123.862C184.703 120.776 172.36 111.156 172.36 94.6387C172.36 77.9398 187.426 64.8711 211.022 64.8711Z" fill="white"/>
</svg>
